<svg width="116" height="147" viewBox="0 0 116 147" fill="none" xmlns="http://www.w3.org/2000/svg">
<g filter="url(#filter0_biii_1_1682)">
<path d="M0 14.7V132.3C0 136.199 1.52767 139.938 4.24695 142.694C6.96623 145.451 10.6544 147 14.5 147H101.5C105.346 147 109.034 145.451 111.753 142.694C114.472 139.938 116 136.199 116 132.3V46.6137C116 44.6554 115.614 42.7168 114.864 40.9119C114.115 39.107 113.017 37.4721 111.636 36.1032L79.4455 4.1895C76.7366 1.50423 73.0986 0.000478039 69.31 0H14.5C10.6544 0 6.96623 1.54874 4.24695 4.30553C1.52767 7.06231 0 10.8013 0 14.7Z" fill="#815C98"/>
</g>
<path d="M57.1391 108.996C47.886 108.996 39.8191 106.094 32.9385 100.29C26.3546 94.7363 22.4265 87.8035 21.1544 79.4914C21.0635 78.8977 21.5296 78.3711 22.1302 78.3711H24.758C25.2476 78.3711 25.6636 78.7262 25.7551 79.2072C27.1156 86.3607 30.6371 92.3382 36.3196 97.1398C42.222 102.127 49.1618 104.621 57.1391 104.621C66.0246 104.621 73.5614 101.65 79.7494 95.7092C85.9373 89.768 89.0329 82.5303 89.0359 73.9961C89.0389 65.4619 85.9434 58.2242 79.7494 52.283C73.5553 46.3417 66.0186 43.3711 57.1391 43.3711C52.4214 43.3711 47.9893 44.3278 43.8427 46.2411C40.3959 47.8291 37.2849 49.9159 34.5098 52.5015C33.8676 53.0998 34.3066 54.138 35.1843 54.138H43.1662C43.7185 54.138 44.1662 54.5857 44.1662 55.138V57.513C44.1662 58.0653 43.7185 58.513 43.1662 58.513H26.2423C25.69 58.513 25.2423 58.0653 25.2423 57.513V41.348C25.2423 40.7957 25.69 40.348 26.2423 40.348H28.799C29.3512 40.348 29.799 40.7957 29.799 41.348V48.2892C29.799 49.1927 30.9186 49.6481 31.5819 49.0345C34.6935 46.1554 38.2275 43.8491 42.184 42.1155C46.9169 40.0417 51.9019 39.0019 57.1391 38.9961C62.1909 38.9961 66.9268 39.909 71.3468 41.7348C75.7668 43.5607 79.6279 46.0603 82.9299 49.2336C86.232 52.4069 88.8354 56.114 90.7401 60.3548C92.6448 64.5957 93.5956 69.1428 93.5926 73.9961C93.5895 78.8494 92.6387 83.3965 90.7401 87.6373C88.8415 91.8782 86.2381 95.5853 82.9299 98.7586C79.6218 101.932 75.7607 104.432 71.3468 106.257C66.9329 108.083 62.197 108.996 57.1391 108.996ZM72.4312 90.1915C72.0443 90.5635 71.4328 90.5637 71.0457 90.1921L55.428 75.2013C55.2315 75.0127 55.1205 74.7522 55.1205 74.4798V53.1211C55.1205 52.5688 55.5682 52.1211 56.1205 52.1211H58.6772C59.2294 52.1211 59.6772 52.5688 59.6772 53.1211V72.6599C59.6772 72.9322 59.7882 73.1927 59.9846 73.3813L74.2095 87.039C74.6192 87.4324 74.6194 88.0876 74.21 88.4812L72.4312 90.1915Z" fill="#D795FF"/>
<defs>
<filter id="filter0_biii_1_1682" x="-10.0163" y="-10.0163" width="136.033" height="167.033" filterUnits="userSpaceOnUse" color-interpolation-filters="sRGB">
<feFlood flood-opacity="0" result="BackgroundImageFix"/>
<feGaussianBlur in="BackgroundImageFix" stdDeviation="5.00813"/>
<feComposite in2="SourceAlpha" operator="in" result="effect1_backgroundBlur_1_1682"/>
<feBlend mode="normal" in="SourceGraphic" in2="effect1_backgroundBlur_1_1682" result="shape"/>
<feColorMatrix in="SourceAlpha" type="matrix" values="0 0 0 0 0 0 0 0 0 0 0 0 0 0 0 0 0 0 127 0" result="hardAlpha"/>
<feOffset dy="2.50406"/>
<feGaussianBlur stdDeviation="5.00813"/>
<feComposite in2="hardAlpha" operator="arithmetic" k2="-1" k3="1"/>
<feColorMatrix type="matrix" values="0 0 0 0 1 0 0 0 0 1 0 0 0 0 1 0 0 0 0.3 0"/>
<feBlend mode="normal" in2="shape" result="effect2_innerShadow_1_1682"/>
<feColorMatrix in="SourceAlpha" type="matrix" values="0 0 0 0 0 0 0 0 0 0 0 0 0 0 0 0 0 0 127 0" result="hardAlpha"/>
<feOffset dy="-2.50406"/>
<feGaussianBlur stdDeviation="5.00813"/>
<feComposite in2="hardAlpha" operator="arithmetic" k2="-1" k3="1"/>
<feColorMatrix type="matrix" values="0 0 0 0 1 0 0 0 0 1 0 0 0 0 1 0 0 0 0.5 0"/>
<feBlend mode="normal" in2="effect2_innerShadow_1_1682" result="effect3_innerShadow_1_1682"/>
<feColorMatrix in="SourceAlpha" type="matrix" values="0 0 0 0 0 0 0 0 0 0 0 0 0 0 0 0 0 0 127 0" result="hardAlpha"/>
<feOffset dy="-2.50406"/>
<feGaussianBlur stdDeviation="1.25203"/>
<feComposite in2="hardAlpha" operator="arithmetic" k2="-1" k3="1"/>
<feColorMatrix type="matrix" values="0 0 0 0 0.879 0 0 0 0 0.725 0 0 0 0 1 0 0 0 0.5 0"/>
<feBlend mode="normal" in2="effect3_innerShadow_1_1682" result="effect4_innerShadow_1_1682"/>
</filter>
</defs>
</svg>
