<svg width="146" height="145" viewBox="0 0 146 145" fill="none" xmlns="http://www.w3.org/2000/svg">
<g filter="url(#filter0_biii_1_1674)">
<path d="M144.368 1.96754C144.309 1.68102 144.169 1.4173 143.965 1.2073C143.762 0.9973 143.502 0.849715 143.218 0.781848C124.244 -3.85724 80.4022 12.6744 56.6495 36.4173C52.4131 40.6195 48.5509 45.183 45.1069 50.056C37.7822 49.408 30.4575 49.9491 24.2148 52.6703C6.60117 60.4226 1.4729 80.6506 0.0442466 89.3521C-0.0367894 89.8284 -0.00622258 90.317 0.133542 90.7794C0.273307 91.2419 0.518458 91.6656 0.849715 92.0173C1.18097 92.369 1.5893 92.639 2.04259 92.8061C2.49587 92.9732 2.98175 93.0329 3.46201 92.9805L31.7468 89.8608C31.767 91.9933 31.8957 94.1233 32.1324 96.2427C32.2747 97.7145 32.928 99.09 33.9789 100.13L44.932 111.057C45.9733 112.107 47.3482 112.76 48.8195 112.904C50.9271 113.139 53.0452 113.268 55.1658 113.289L52.0623 141.539C52.0105 142.019 52.0707 142.504 52.238 142.957C52.4054 143.41 52.6754 143.818 53.0269 144.149C53.3784 144.48 53.8019 144.726 54.264 144.866C54.7262 145.006 55.2145 145.037 55.6906 144.956C64.376 143.563 84.6396 138.435 92.3465 120.821C95.0678 114.579 95.625 107.29 94.9965 100.001C99.8812 96.5564 104.457 92.6932 108.671 88.4548C132.498 64.7475 148.936 21.8845 144.368 1.96754ZM84.8987 60.1732C82.723 57.9989 81.241 55.2282 80.6402 52.2115C80.0394 49.1948 80.3467 46.0677 81.5233 43.2257C82.7 40.3837 84.6931 37.9545 87.2505 36.2454C89.8079 34.5363 92.8147 33.6241 95.8907 33.6241C98.9666 33.6241 101.973 34.5363 104.531 36.2454C107.088 37.9545 109.081 40.3837 110.258 43.2257C111.435 46.0677 111.742 49.1948 111.141 52.2115C110.54 55.2282 109.058 57.9989 106.883 60.1732C105.44 61.618 103.726 62.7642 101.84 63.5462C99.9542 64.3283 97.9325 64.7308 95.8907 64.7308C93.8489 64.7308 91.8271 64.3283 89.941 63.5462C88.0549 62.7642 86.3415 61.618 84.8987 60.1732Z" fill="#815C98"/>
<path d="M43.7737 118.618C41.9984 120.397 39.1508 121.09 35.7233 121.683C28.0228 122.995 21.2229 116.341 22.6062 108.556C23.1343 105.605 24.6957 101.468 25.6676 100.496C25.88 100.288 26.0214 100.018 26.0717 99.7246C26.122 99.4314 26.0786 99.1297 25.9477 98.8625C25.8168 98.5953 25.605 98.3762 25.3425 98.2362C25.0799 98.0962 24.78 98.0425 24.4852 98.0827C20.179 98.6096 16.1728 100.562 13.1045 103.629C5.48823 111.252 4.76904 139.536 4.76904 139.536C4.76904 139.536 33.0701 138.817 40.6863 131.194C43.7626 128.129 45.7174 124.116 46.2358 119.804C46.3556 118.45 44.7067 117.643 43.7737 118.618Z" fill="#815C98"/>
</g>
<defs>
<filter id="filter0_biii_1_1674" x="-10.0163" y="-10.0163" width="165.164" height="165.033" filterUnits="userSpaceOnUse" color-interpolation-filters="sRGB">
<feFlood flood-opacity="0" result="BackgroundImageFix"/>
<feGaussianBlur in="BackgroundImageFix" stdDeviation="5.00813"/>
<feComposite in2="SourceAlpha" operator="in" result="effect1_backgroundBlur_1_1674"/>
<feBlend mode="normal" in="SourceGraphic" in2="effect1_backgroundBlur_1_1674" result="shape"/>
<feColorMatrix in="SourceAlpha" type="matrix" values="0 0 0 0 0 0 0 0 0 0 0 0 0 0 0 0 0 0 127 0" result="hardAlpha"/>
<feOffset dy="2.50406"/>
<feGaussianBlur stdDeviation="5.00813"/>
<feComposite in2="hardAlpha" operator="arithmetic" k2="-1" k3="1"/>
<feColorMatrix type="matrix" values="0 0 0 0 1 0 0 0 0 1 0 0 0 0 1 0 0 0 0.3 0"/>
<feBlend mode="normal" in2="shape" result="effect2_innerShadow_1_1674"/>
<feColorMatrix in="SourceAlpha" type="matrix" values="0 0 0 0 0 0 0 0 0 0 0 0 0 0 0 0 0 0 127 0" result="hardAlpha"/>
<feOffset dy="-2.50406"/>
<feGaussianBlur stdDeviation="5.00813"/>
<feComposite in2="hardAlpha" operator="arithmetic" k2="-1" k3="1"/>
<feColorMatrix type="matrix" values="0 0 0 0 1 0 0 0 0 1 0 0 0 0 1 0 0 0 0.5 0"/>
<feBlend mode="normal" in2="effect2_innerShadow_1_1674" result="effect3_innerShadow_1_1674"/>
<feColorMatrix in="SourceAlpha" type="matrix" values="0 0 0 0 0 0 0 0 0 0 0 0 0 0 0 0 0 0 127 0" result="hardAlpha"/>
<feOffset dy="-2.50406"/>
<feGaussianBlur stdDeviation="1.25203"/>
<feComposite in2="hardAlpha" operator="arithmetic" k2="-1" k3="1"/>
<feColorMatrix type="matrix" values="0 0 0 0 0.879 0 0 0 0 0.725 0 0 0 0 1 0 0 0 0.5 0"/>
<feBlend mode="normal" in2="effect3_innerShadow_1_1674" result="effect4_innerShadow_1_1674"/>
</filter>
</defs>
</svg>
