<svg width="27" height="21" viewBox="0 0 27 21" fill="none" xmlns="http://www.w3.org/2000/svg">
<path d="M26.3731 1.36904C26.5548 0.587662 26.3731 0.0146484 25.5142 0.0146484H22.6687C21.9447 0.0146484 21.6139 0.510364 21.4322 1.05481C21.4322 1.05481 19.9855 5.62379 17.9354 8.58632C17.2737 9.44836 16.9714 9.72058 16.6107 9.72058C16.4303 9.72058 16.1682 9.44836 16.1682 8.66698V1.36904C16.1682 0.431385 15.9593 0.0146484 15.356 0.0146484H10.8848C10.4332 0.0146484 10.1608 0.448189 10.1608 0.861565C10.1608 1.74881 11.1858 1.95382 11.2909 4.45424V9.87854C11.2909 11.0666 11.1261 11.2833 10.7628 11.2833C9.79877 11.2833 7.45287 6.69756 6.06065 1.44802C5.78947 0.428025 5.5157 0.0163295 4.7891 0.0163295H1.94496C1.13143 0.0163295 0.969238 0.512044 0.969238 1.05649C0.969238 2.03448 1.93329 6.874 5.45991 13.2746C7.81099 17.6453 11.1209 20.0146 14.1363 20.0146C15.9438 20.0146 16.1669 19.4887 16.1669 18.5813V15.2776C16.1669 14.2257 16.3395 14.014 16.9117 14.014C17.3321 14.014 18.0561 14.2896 19.7441 16.3951C21.6722 18.8921 21.9914 20.013 23.0748 20.013H25.919C26.7312 20.013 27.1373 19.487 26.9038 18.4485C26.6482 17.4151 25.7269 15.9111 24.5047 14.1316C23.8404 13.1166 22.8478 12.0244 22.5455 11.4783C22.1238 10.7742 22.2457 10.4633 22.5455 9.83821C22.5468 9.83989 26.0124 3.51826 26.3731 1.36904Z" fill="white"/>
</svg>
