<svg width="45" height="35" viewBox="0 0 45 35" fill="none" xmlns="http://www.w3.org/2000/svg">
<path fill-rule="evenodd" clip-rule="evenodd" d="M28.137 20.8712L28.2228 20.5277L30.7131 28.1701L30.4125 28.5995L30.4125 28.5566L30.3267 28.7283C23.1565 38.2599 7.95749 36.4137 2.333 26.7103C-3.63497 16.4059 2.41887 2.79553 14.0972 0.348228C15.2994 0.133553 16.5445 0.00474545 17.7896 0.00474545C23.3282 0.00474543 29.1674 2.40911 32.1299 7.26077L34.4484 0.949318L41.6615 0.949318L36.2088 16.1054L39.7294 25.8946C40.1158 26.8821 41.1892 27.4402 42.1767 27.1826L42.4773 27.0968L44.4094 33.58L42.0909 34.181C38.7849 34.9968 35.393 33.3223 34.1479 30.1452C33.8473 29.587 33.5468 28.9859 33.3321 28.3419L32.0441 24.95L31.9582 24.8212L31.9582 24.7783L29.0815 16.0625C27.4929 11.2537 24.5304 8.93524 22.169 7.99067C20.8809 7.38957 19.4212 7.08903 17.8755 7.08903C11.9075 7.08903 7.09879 11.8548 7.09879 17.694C7.09879 23.5332 11.9075 28.2989 17.8755 28.2989C22.6842 28.2989 26.763 25.1647 28.137 20.8712Z" fill="url(#paint0_linear_11_116)"/>
<defs>
<linearGradient id="paint0_linear_11_116" x1="0.0574407" y1="0.494207" x2="42.9925" y2="0.494207" gradientUnits="userSpaceOnUse">
<stop stop-color="#7A5FFF"/>
<stop offset="1" stop-color="#00E824"/>
</linearGradient>
</defs>
</svg>
