<svg width="48" height="94" viewBox="0 0 48 94" fill="none" xmlns="http://www.w3.org/2000/svg">
<g filter="url(#filter0_dddddd_11_231)">
<path d="M33.3768 81C30.8409 81 28.3691 80.3875 25.9614 79.1626C23.5537 77.9376 21.4208 76.3191 19.5627 74.307C17.7046 72.2949 16.2106 69.9843 15.0806 67.3751C13.9507 64.7658 13.3853 62.088 13.3845 59.3417C13.3845 58.9583 13.5025 58.6389 13.7384 58.3833C13.9743 58.1278 14.2691 58 14.623 58H19.3999C19.6751 58 19.9208 58.0958 20.1371 58.2875C20.3533 58.4792 20.4811 58.7241 20.5204 59.0222L21.2871 63.4944C21.3264 63.7926 21.3213 64.0643 21.2718 64.3097C21.2222 64.555 21.1094 64.7731 20.9332 64.9639L18.1025 68.0944C18.9281 69.6278 19.9602 71.0653 21.1986 72.4069C22.4371 73.7486 23.8033 74.9093 25.2973 75.8889L28.0691 72.8861C28.2461 72.6944 28.4772 72.5509 28.7627 72.4555C29.0481 72.3601 29.328 72.3333 29.6025 72.375L33.6717 73.2694C33.9469 73.3333 34.173 73.4773 34.3499 73.7013C34.5268 73.9254 34.6153 74.186 34.6153 74.4833V79.6583C34.6153 80.0417 34.4973 80.3611 34.2614 80.6167C34.0255 80.8722 33.7307 81 33.3768 81Z" fill="#F8EDFF"/>
</g>
<defs>
<filter id="filter0_dddddd_11_231" x="-50.3211" y="-5.70558" width="148.642" height="150.411" filterUnits="userSpaceOnUse" color-interpolation-filters="sRGB">
<feFlood flood-opacity="0" result="BackgroundImageFix"/>
<feColorMatrix in="SourceAlpha" type="matrix" values="0 0 0 0 0 0 0 0 0 0 0 0 0 0 0 0 0 0 127 0" result="hardAlpha"/>
<feOffset/>
<feGaussianBlur stdDeviation="0.7584"/>
<feColorMatrix type="matrix" values="0 0 0 0 0 0 0 0 0 1 0 0 0 0 0.882353 0 0 0 1 0"/>
<feBlend mode="normal" in2="BackgroundImageFix" result="effect1_dropShadow_11_231"/>
<feColorMatrix in="SourceAlpha" type="matrix" values="0 0 0 0 0 0 0 0 0 0 0 0 0 0 0 0 0 0 127 0" result="hardAlpha"/>
<feOffset/>
<feGaussianBlur stdDeviation="1.5168"/>
<feColorMatrix type="matrix" values="0 0 0 0 0 0 0 0 0 1 0 0 0 0 0.882353 0 0 0 1 0"/>
<feBlend mode="normal" in2="effect1_dropShadow_11_231" result="effect2_dropShadow_11_231"/>
<feColorMatrix in="SourceAlpha" type="matrix" values="0 0 0 0 0 0 0 0 0 0 0 0 0 0 0 0 0 0 127 0" result="hardAlpha"/>
<feOffset/>
<feGaussianBlur stdDeviation="5.3088"/>
<feColorMatrix type="matrix" values="0 0 0 0 0 0 0 0 0 1 0 0 0 0 0.882353 0 0 0 1 0"/>
<feBlend mode="normal" in2="effect2_dropShadow_11_231" result="effect3_dropShadow_11_231"/>
<feColorMatrix in="SourceAlpha" type="matrix" values="0 0 0 0 0 0 0 0 0 0 0 0 0 0 0 0 0 0 127 0" result="hardAlpha"/>
<feOffset/>
<feGaussianBlur stdDeviation="10.6176"/>
<feColorMatrix type="matrix" values="0 0 0 0 0 0 0 0 0 1 0 0 0 0 0.882353 0 0 0 1 0"/>
<feBlend mode="normal" in2="effect3_dropShadow_11_231" result="effect4_dropShadow_11_231"/>
<feColorMatrix in="SourceAlpha" type="matrix" values="0 0 0 0 0 0 0 0 0 0 0 0 0 0 0 0 0 0 127 0" result="hardAlpha"/>
<feOffset/>
<feGaussianBlur stdDeviation="18.2016"/>
<feColorMatrix type="matrix" values="0 0 0 0 0 0 0 0 0 1 0 0 0 0 0.882353 0 0 0 1 0"/>
<feBlend mode="normal" in2="effect4_dropShadow_11_231" result="effect5_dropShadow_11_231"/>
<feColorMatrix in="SourceAlpha" type="matrix" values="0 0 0 0 0 0 0 0 0 0 0 0 0 0 0 0 0 0 127 0" result="hardAlpha"/>
<feOffset/>
<feGaussianBlur stdDeviation="31.8528"/>
<feColorMatrix type="matrix" values="0 0 0 0 0 0 0 0 0 1 0 0 0 0 0.882353 0 0 0 1 0"/>
<feBlend mode="normal" in2="effect5_dropShadow_11_231" result="effect6_dropShadow_11_231"/>
<feBlend mode="normal" in="SourceGraphic" in2="effect6_dropShadow_11_231" result="shape"/>
</filter>
</defs>
</svg>
