<svg width="18" height="19" viewBox="0 0 18 19" fill="none" xmlns="http://www.w3.org/2000/svg">
<path d="M0 4.65385C0 12.3006 6.19938 18.5 13.8462 18.5H15.9231C16.4739 18.5 17.0022 18.2812 17.3917 17.8917C17.7812 17.5022 18 16.9739 18 16.4231V15.1566C18 14.6803 17.676 14.2649 17.2135 14.1495L13.1308 13.1286C12.7246 13.0271 12.2982 13.1794 12.048 13.5135L11.1526 14.7071C10.8923 15.0542 10.4428 15.2074 10.0357 15.0578C8.52451 14.5023 7.15214 13.6249 6.01364 12.4864C4.87515 11.3479 3.99773 9.97549 3.44215 8.46431C3.29262 8.05723 3.44585 7.60769 3.79292 7.34738L4.98646 6.452C5.32154 6.20185 5.47292 5.77446 5.37139 5.36923L4.35046 1.28646C4.29428 1.06187 4.16467 0.862495 3.9822 0.720003C3.79974 0.577512 3.57489 0.500077 3.34338 0.5H2.07692C1.52609 0.5 0.997815 0.718818 0.608317 1.10832C0.218818 1.49782 0 2.02609 0 2.57692V4.65385Z" fill="white"/>
</svg>
